<?xml version="1.0" encoding="utf-8"?>
<!-- Generator: Adobe Illustrator 21.0.2, SVG Export Plug-In . SVG Version: 6.00 Build 0)  -->
<svg version="1.1" id="Layer_1" xmlns="http://www.w3.org/2000/svg" xmlns:xlink="http://www.w3.org/1999/xlink" x="0px" y="0px"
	 viewBox="0 0 220 220" style="enable-background:new 0 0 220 220;" xml:space="preserve">
<style type="text/css">
	.st0{fill:#FFFFFF;}
</style>
<g>
	<path class="st0" d="M133,115.5H87c-3.2,0-6.2-2.6-6.6-5.8L76.3,77c-0.4-3.2,2.4-5.8,6.3-5.8h55.4c3.9,0,6.7,2.6,6.2,5.8l-4.5,32.7
		C139.2,112.9,136.2,115.5,133,115.5z"/>
</g>
<path class="st0" d="M134.8,130.3H85.2c-1.4,0-2.6-1.2-2.6-2.6v-4.9c0-1.4,1.2-2.6,2.6-2.6h49.5c1.4,0,2.6,1.2,2.6,2.6v4.9
	C137.4,129.2,136.2,130.3,134.8,130.3z"/>
<path class="st0" d="M132,145.2H88c-1.4,0-2.4-1.1-2.4-2.4v-5.2c0-1.4,1.1-2.4,2.4-2.4H132c1.4,0,2.4,1.1,2.4,2.4v5.2
	C134.4,144.1,133.3,145.2,132,145.2z"/>
<path class="st0" d="M120.2,160H99.8c-0.9,0-1.7-0.8-1.7-1.7v-6.6c0-0.9,0.8-1.7,1.7-1.7h20.3c0.9,0,1.7,0.8,1.7,1.7v6.6
	C121.9,159.2,121.1,160,120.2,160z"/>
<ellipse class="st0" cx="110" cy="63.6" rx="43.6" ry="43.6"/>
</svg>
