<?xml version="1.0" encoding="utf-8"?>
<!-- Generator: Adobe Illustrator 21.0.2, SVG Export Plug-In . SVG Version: 6.00 Build 0)  -->
<svg version="1.1" xmlns="http://www.w3.org/2000/svg" xmlns:xlink="http://www.w3.org/1999/xlink" x="0px" y="0px"
	 viewBox="0 0 220 220" style="enable-background:new 0 0 220 220;" xml:space="preserve">
<style type="text/css">
	.st0{display:none;}
	.st1{display:inline;}
	.st2{fill:#FFFFFF;}
	.st3{display:inline;fill:#FFFFFF;}
</style>
<g id="more" class="st0">
	<g class="st1">
		<polygon class="st2" points="121.7,40 98.3,40 98.3,180 121.7,180 121.7,40 		"/>
	</g>
	<g class="st1">
		<polygon class="st2" points="180,98.3 40,98.3 40,121.7 180,121.7 180,98.3 		"/>
	</g>
</g>
<g id="thermo" class="st0">
	<g class="st1">
		<path class="st2" d="M110,55c30.3,0,55,24.7,55,55s-24.7,55-55,55s-55-24.7-55-55S79.7,55,110,55 M110,40c-38.7,0-70,31.3-70,70
			s31.3,70,70,70s70-31.3,70-70S148.7,40,110,40L110,40z"/>
	</g>
	<g class="st1">
		<g>
			<path class="st2" d="M110,98.8c6.2,0,11.2,5,11.2,11.2c0,6.2-5,11.2-11.2,11.2c-6.2,0-11.2-5-11.2-11.2
				C98.8,103.8,103.8,98.8,110,98.8 M110,83.8c-14.5,0-26.2,11.8-26.2,26.2c0,14.5,11.8,26.2,26.2,26.2c14.5,0,26.2-11.8,26.2-26.2
				C136.2,95.5,124.5,83.8,110,83.8L110,83.8z"/>
		</g>
	</g>
	<g class="st1">
		<path class="st2" d="M145.9,73.4c-0.1,0-0.2,0-0.3,0.1L129,82.3c-0.4,0.2-0.5,0.8-0.2,1.1l7.7,7.7c0.1,0.1,0.3,0.2,0.5,0.2
			c0.2,0,0.5-0.1,0.6-0.4l8.9-16.6C146.8,73.9,146.4,73.4,145.9,73.4L145.9,73.4z"/>
	</g>
</g>
<g id="appliance" class="st0">
	<g class="st1">
		<path class="st2" d="M146.8,50v120H73.2V50H146.8 M150.6,40H69.4c-3.4,0-6.2,2.8-6.2,6.2v127.7c0,3.4,2.8,6.2,6.2,6.2h81.2
			c3.4,0,6.2-2.8,6.2-6.2V46.2C156.8,42.8,154,40,150.6,40L150.6,40z"/>
	</g>
	<g class="st1">
		<polygon class="st2" points="107.4,48.7 102.7,48.7 102.7,160 107.4,160 107.4,48.7 		"/>
	</g>
	<g class="st1">
		<path class="st2" d="M94,65.2h-1.4c-0.9,0-1.6,0.7-1.6,1.6v65.6c0,0.9,0.7,1.6,1.6,1.6H94c0.9,0,1.6-0.7,1.6-1.6V66.8
			C95.7,65.9,95,65.2,94,65.2L94,65.2z"/>
	</g>
	<g class="st1">
		<path class="st2" d="M117.4,65.4H116c-0.9,0-1.6,0.7-1.6,1.6v65.6c0,0.9,0.7,1.6,1.6,1.6h1.4c0.9,0,1.6-0.7,1.6-1.6V67
			C119,66.1,118.3,65.4,117.4,65.4L117.4,65.4z"/>
	</g>
	<g class="st1">
		<polygon class="st2" points="149.1,158 71.9,158 71.9,162.7 149.1,162.7 149.1,158 		"/>
	</g>
</g>
<g id="cameras" class="st0">
	<path class="st3" d="M156.1,150L50.4,86.3c-1.4-0.9-1.9-2.8-1.1-4.3l22.9-40.5c0.8-1.5,2.7-2,4.1-1.1l105.8,63.7
		c1.4,0.9,1.9,2.8,1.1,4.3l-22.9,40.5C159.4,150.4,157.6,150.9,156.1,150z"/>
	<path class="st3" d="M129,160.3l-89.7-54c-1.3-0.8-1.7-2.5-1-3.8l6.1-10.8c0.7-1.3,2.4-1.8,3.7-1l89.7,54c1.3,0.8,1.7,2.5,1,3.8
		l-6.1,10.8C131.9,160.7,130.2,161.1,129,160.3z"/>
	<path class="st3" d="M163.1,126l7.4,18.9c0.9,2.2,3.9,2.4,5.1,0.4l12.2-21.6c1.2-2-0.5-4.5-2.9-4.2l-19.6,2.7
		C163.5,122.4,162.4,124.3,163.1,126z"/>
	
		<ellipse transform="matrix(2.302165e-02 -0.9997 0.9997 2.302165e-02 -48.8868 220.4432)" class="st3" cx="88.3" cy="135.2" rx="17.3" ry="16.8"/>
	<polygon class="st3" points="72,180 59.4,172.9 78.7,136.4 91.3,143.5 	"/>
	
		<rect x="44.7" y="152" transform="matrix(-2.302165e-02 0.9997 -0.9997 -2.302165e-02 225.3508 124.012)" class="st3" width="14.8" height="40.2"/>
</g>
<g id="locks">
	<g>
		<path class="st2" d="M161.4,143.6H58.6c-4.4,0-8-3.6-8-8V89.9c0-4.4,3.6-8,8-8h102.8c4.4,0,8,3.6,8,8v45.7
			C169.4,140,165.8,143.6,161.4,143.6z"/>
	</g>
	<g>
		<path class="st2" d="M126.7,35c8.7,0,15.8,7.1,15.8,15.8V92c0,8.7-7.1,15.8-15.8,15.8H93.3c-8.7,0-15.8-7.1-15.8-15.8V50.8
			c0-8.7,7.1-15.8,15.8-15.8H126.7 M126.7,20H93.3c-17,0-30.8,13.8-30.8,30.8V92c0,17,13.8,30.8,30.8,30.8h33.4
			c17,0,30.8-13.8,30.8-30.8V50.8C157.5,33.8,143.7,20,126.7,20L126.7,20z"/>
	</g>
	<g>
		<path class="st2" d="M164.6,160H55.4c-2.7,0-4.9-2.2-4.9-4.9v-1.9c0-2.7,2.2-4.9,4.9-4.9h109.1c2.7,0,4.9,2.2,4.9,4.9v1.9
			C169.4,157.8,167.2,160,164.6,160z"/>
	</g>
</g>
<g id="lights" class="st0">
	<g class="st1">
		<path class="st2" d="M133,115.5H87c-3.2,0-6.2-2.6-6.6-5.8L76.3,77c-0.4-3.2,2.4-5.8,6.3-5.8h55.4c3.9,0,6.7,2.6,6.2,5.8
			l-4.5,32.7C139.2,112.9,136.2,115.5,133,115.5z"/>
	</g>
	<path class="st3" d="M134.8,130.3H85.2c-1.4,0-2.6-1.2-2.6-2.6v-4.9c0-1.4,1.2-2.6,2.6-2.6h49.5c1.4,0,2.6,1.2,2.6,2.6v4.9
		C137.4,129.2,136.2,130.3,134.8,130.3z"/>
	<path class="st3" d="M132,145.2H88c-1.4,0-2.4-1.1-2.4-2.4v-5.2c0-1.4,1.1-2.4,2.4-2.4H132c1.4,0,2.4,1.1,2.4,2.4v5.2
		C134.4,144.1,133.3,145.2,132,145.2z"/>
	<path class="st3" d="M120.2,160H99.8c-0.9,0-1.7-0.8-1.7-1.7v-6.6c0-0.9,0.8-1.7,1.7-1.7h20.3c0.9,0,1.7,0.8,1.7,1.7v6.6
		C121.9,159.2,121.1,160,120.2,160z"/>
	<ellipse class="st3" cx="110" cy="63.6" rx="43.6" ry="43.6"/>
</g>
</svg>
