<?xml version="1.0" encoding="utf-8"?>
<!-- Generator: Adobe Illustrator 21.0.2, SVG Export Plug-In . SVG Version: 6.00 Build 0)  -->
<svg version="1.1" xmlns="http://www.w3.org/2000/svg" xmlns:xlink="http://www.w3.org/1999/xlink" x="0px" y="0px"
	 viewBox="0 0 220 220" style="enable-background:new 0 0 220 220;" xml:space="preserve">
<style type="text/css">
	.st0{fill:#FFFFFF;}
	.st1{display:none;}
	.st2{display:inline;}
	.st3{display:inline;fill:#FFFFFF;}
</style>
<g id="more">
	<g>
		<polygon class="st0" points="121.7,20 98.3,20 98.3,160 121.7,160 121.7,20 		"/>
	</g>
	<g>
		<polygon class="st0" points="180,78.3 40,78.3 40,101.7 180,101.7 180,78.3 		"/>
	</g>
</g>
<g id="thermo" class="st1">
	<g class="st2">
		<path class="st0" d="M110,35c30.3,0,55,24.7,55,55s-24.7,55-55,55s-55-24.7-55-55S79.7,35,110,35 M110,20c-38.7,0-70,31.3-70,70
			s31.3,70,70,70s70-31.3,70-70S148.7,20,110,20L110,20z"/>
	</g>
	<g class="st2">
		<g>
			<path class="st0" d="M110,78.8c6.2,0,11.2,5,11.2,11.2s-5,11.2-11.2,11.2c-6.2,0-11.2-5-11.2-11.2S103.8,78.8,110,78.8 M110,63.8
				c-14.5,0-26.2,11.8-26.2,26.2s11.8,26.2,26.2,26.2c14.5,0,26.2-11.8,26.2-26.2S124.5,63.8,110,63.8L110,63.8z"/>
		</g>
	</g>
	<g class="st2">
		<path class="st0" d="M145.9,53.4c-0.1,0-0.2,0-0.3,0.1L129,62.3c-0.4,0.2-0.5,0.8-0.2,1.1l7.7,7.7c0.1,0.1,0.3,0.2,0.5,0.2
			c0.2,0,0.5-0.1,0.6-0.4l8.9-16.6C146.8,53.9,146.4,53.4,145.9,53.4L145.9,53.4z"/>
	</g>
</g>
<g id="appliance" class="st1">
	<g class="st2">
		<path class="st0" d="M146.8,30v120H73.2V30H146.8 M150.6,20H69.4c-3.4,0-6.2,2.8-6.2,6.2v127.7c0,3.4,2.8,6.2,6.2,6.2h81.2
			c3.4,0,6.2-2.8,6.2-6.2V26.2C156.8,22.8,154,20,150.6,20L150.6,20z"/>
	</g>
	<g class="st2">
		<polygon class="st0" points="107.4,28.7 102.7,28.7 102.7,140 107.4,140 107.4,28.7 		"/>
	</g>
	<g class="st2">
		<path class="st0" d="M94,45.2h-1.4c-0.9,0-1.6,0.7-1.6,1.6v65.6c0,0.9,0.7,1.6,1.6,1.6H94c0.9,0,1.6-0.7,1.6-1.6V46.8
			C95.7,45.9,95,45.2,94,45.2L94,45.2z"/>
	</g>
	<g class="st2">
		<path class="st0" d="M117.4,45.4H116c-0.9,0-1.6,0.7-1.6,1.6v65.6c0,0.9,0.7,1.6,1.6,1.6h1.4c0.9,0,1.6-0.7,1.6-1.6V47
			C119,46.1,118.3,45.4,117.4,45.4L117.4,45.4z"/>
	</g>
	<g class="st2">
		<polygon class="st0" points="149.1,138 71.9,138 71.9,142.7 149.1,142.7 149.1,138 		"/>
	</g>
</g>
<g id="cameras" class="st1">
	<path class="st3" d="M156.1,130L50.4,66.3c-1.4-0.9-1.9-2.8-1.1-4.3l22.9-40.5c0.8-1.5,2.7-2,4.1-1.1l105.8,63.7
		c1.4,0.9,1.9,2.8,1.1,4.3l-22.9,40.5C159.4,130.4,157.6,130.9,156.1,130z"/>
	<path class="st3" d="M129,140.3l-89.7-54c-1.3-0.8-1.7-2.5-1-3.8l6.1-10.8c0.7-1.3,2.4-1.8,3.7-1l89.7,54c1.3,0.8,1.7,2.5,1,3.8
		l-6.1,10.8C131.9,140.7,130.2,141.1,129,140.3z"/>
	<path class="st3" d="M163.1,106l7.4,18.9c0.9,2.2,3.9,2.4,5.1,0.4l12.2-21.6c1.2-2-0.5-4.5-2.9-4.2l-19.6,2.7
		C163.5,102.4,162.4,104.3,163.1,106z"/>
	
		<ellipse transform="matrix(2.302165e-02 -0.9997 0.9997 2.302165e-02 -28.8921 200.9036)" class="st3" cx="88.3" cy="115.2" rx="17.3" ry="16.8"/>
	<polygon class="st3" points="72,160 59.4,152.9 78.7,116.4 91.3,123.5 	"/>
	
		<rect x="44.7" y="132" transform="matrix(-2.302165e-02 0.9997 -0.9997 -2.302165e-02 205.356 103.5516)" class="st3" width="14.8" height="40.2"/>
</g>
<g id="locks" class="st1">
	<g class="st2">
		<path class="st0" d="M161.4,143.6H58.6c-4.4,0-8-3.6-8-8V89.9c0-4.4,3.6-8,8-8h102.8c4.4,0,8,3.6,8,8v45.7
			C169.4,140,165.8,143.6,161.4,143.6z"/>
	</g>
	<g class="st2">
		<path class="st0" d="M126.7,35c8.7,0,15.8,7.1,15.8,15.8V92c0,8.7-7.1,15.8-15.8,15.8H93.3c-8.7,0-15.8-7.1-15.8-15.8V50.8
			c0-8.7,7.1-15.8,15.8-15.8H126.7 M126.7,20H93.3c-17,0-30.8,13.8-30.8,30.8V92c0,17,13.8,30.8,30.8,30.8h33.4
			c17,0,30.8-13.8,30.8-30.8V50.8C157.5,33.8,143.7,20,126.7,20L126.7,20z"/>
	</g>
	<g class="st2">
		<path class="st0" d="M164.6,160H55.4c-2.7,0-4.9-2.2-4.9-4.9v-1.9c0-2.7,2.2-4.9,4.9-4.9h109.1c2.7,0,4.9,2.2,4.9,4.9v1.9
			C169.4,157.8,167.2,160,164.6,160z"/>
	</g>
</g>
<g id="lights" class="st1">
	<g class="st2">
		<path class="st0" d="M133,115.5H87c-3.2,0-6.2-2.6-6.6-5.8L76.3,77c-0.4-3.2,2.4-5.8,6.3-5.8h55.4c3.9,0,6.7,2.6,6.2,5.8
			l-4.5,32.7C139.2,112.9,136.2,115.5,133,115.5z"/>
	</g>
	<path class="st3" d="M134.8,130.3H85.2c-1.4,0-2.6-1.2-2.6-2.6v-4.9c0-1.4,1.2-2.6,2.6-2.6h49.5c1.4,0,2.6,1.2,2.6,2.6v4.9
		C137.4,129.2,136.2,130.3,134.8,130.3z"/>
	<path class="st3" d="M132,145.2H88c-1.4,0-2.4-1.1-2.4-2.4v-5.2c0-1.4,1.1-2.4,2.4-2.4H132c1.4,0,2.4,1.1,2.4,2.4v5.2
		C134.4,144.1,133.3,145.2,132,145.2z"/>
	<path class="st3" d="M120.2,160H99.8c-0.9,0-1.7-0.8-1.7-1.7v-6.6c0-0.9,0.8-1.7,1.7-1.7h20.3c0.9,0,1.7,0.8,1.7,1.7v6.6
		C121.9,159.2,121.1,160,120.2,160z"/>
	<ellipse class="st3" cx="110" cy="63.6" rx="43.6" ry="43.6"/>
</g>
</svg>
